<svg width="14" height="14" viewBox="0 0 14 14" fill="none" xmlns="http://www.w3.org/2000/svg">
<path fill-rule="evenodd" clip-rule="evenodd" d="M0.333374 7.00001C0.333374 3.32001 3.32004 0.333344 7.00004 0.333344C10.68 0.333344 13.6667 3.32001 13.6667 7.00001C13.6667 10.68 10.68 13.6667 7.00004 13.6667C3.32004 13.6667 0.333374 10.68 0.333374 7.00001ZM2.66671 7.00001C2.66671 7.55334 3.11337 8.00001 3.66671 8.00001C4.22004 8.00001 4.66671 7.55334 4.66671 7.00001C4.66671 6.44668 4.22004 6.00001 3.66671 6.00001C3.11337 6.00001 2.66671 6.44668 2.66671 7.00001ZM7.00004 8.00001C6.44671 8.00001 6.00004 7.55334 6.00004 7.00001C6.00004 6.44668 6.44671 6.00001 7.00004 6.00001C7.55337 6.00001 8.00004 6.44668 8.00004 7.00001C8.00004 7.55334 7.55337 8.00001 7.00004 8.00001ZM9.33337 7.00001C9.33337 7.55334 9.78004 8.00001 10.3334 8.00001C10.8867 8.00001 11.3334 7.55334 11.3334 7.00001C11.3334 6.44668 10.8867 6.00001 10.3334 6.00001C9.78004 6.00001 9.33337 6.44668 9.33337 7.00001Z" fill="#FF7E28"/>
</svg>
